<svg xmlns="http://www.w3.org/2000/svg" width="1em" height="1em" viewBox="0 0 24 24">
	<g fill="none" stroke-linecap="round" stroke-linejoin="round" stroke-width="2">
		<path d="M0 0h24v24H0z" />
		<path fill="currentColor" d="M9 4H7a2 2 0 0 0-2 2v12a2 2 0 0 0 2 2h2a2 2 0 0 0 2-2V6a2 2 0 0 0-2-2m8 0h-2a2 2 0 0 0-2 2v12a2 2 0 0 0 2 2h2a2 2 0 0 0 2-2V6a2 2 0 0 0-2-2" />
	</g>
</svg><svg
  width="17"
  height="19"
  viewBox="0 0 17 19"
  fill="none"
  xmlns="http://www.w3.org/2000/svg"
><path d="M0 6.54013e-07H4.75V19H0V6.54013e-07Z" /> <path d="M11.4 0H16.15V19H11.4V0Z" /></svg>
